<svg id="Layer_1" data-name="Layer 1" xmlns="http://www.w3.org/2000/svg" viewBox="0 0 193.44 24.96"><polygon points="15.6 0 12.48 0 9.36 0 6.24 0 3.12 0 0 3.12 0 15.6 3.12 15.6 6.24 15.6 9.36 15.6 12.48 15.6 15.6 15.6 18.72 15.6 21.84 15.6 21.84 9.36 18.72 9.36 15.6 9.36 12.48 9.36 9.36 9.36 6.24 9.36 6.24 6.24 9.36 6.24 12.48 6.24 15.6 6.24 18.72 6.24 21.84 6.24 21.84 0 18.72 0 15.6 0"/><polygon points="15.6 18.72 12.48 18.72 9.36 18.72 6.24 18.72 3.12 18.72 0 18.72 0 24.96 3.12 24.96 6.24 24.96 9.36 24.96 12.48 24.96 15.6 24.96 18.72 24.96 21.84 24.96 21.84 18.72 18.72 18.72 15.6 18.72"/><polygon points="31.2 9.36 28.08 9.36 28.08 9.36 24.96 9.36 21.84 9.36 21.84 15.6 24.96 15.6 28.08 15.6 28.08 18.72 24.96 18.72 21.84 18.72 21.84 24.96 24.96 24.96 28.08 24.96 31.2 24.96 31.2 24.93 34.29 21.84 34.32 21.84 34.32 9.36 31.2 9.36 31.2 9.36"/><polygon points="53.04 9.36 49.92 9.36 46.8 9.36 43.68 9.36 43.68 0 40.56 0 37.44 0 34.32 0 31.2 0 28.08 0 24.96 0 21.84 0 21.84 6.24 24.96 6.24 28.08 6.24 31.2 6.24 34.32 6.24 37.44 6.24 37.44 12.48 40.56 15.6 43.68 15.6 46.8 15.6 49.92 15.6 53.04 15.6 56.16 15.6 59.28 15.6 59.28 9.36 56.16 9.36 53.04 9.36"/><polygon points="53.04 18.72 49.92 18.72 46.8 18.72 43.68 18.72 40.56 18.72 37.44 18.72 37.44 24.96 40.56 24.96 43.68 24.96 46.8 24.96 49.92 24.96 53.04 24.96 56.16 24.96 59.28 24.96 59.28 18.72 56.16 18.72 53.04 18.72"/><polygon points="65.52 15.6 68.64 15.6 71.76 12.48 71.76 0 68.64 0 65.52 0 65.52 9.36 62.4 9.36 59.28 9.36 59.28 15.6 62.4 15.6 65.52 15.6"/><polygon points="93.6 0 90.48 0 87.36 0 84.24 0 81.12 0 78 0 74.88 3.12 74.88 15.6 78 15.6 81.12 15.6 84.24 15.6 87.36 15.6 90.48 15.6 93.6 15.6 96.72 15.6 99.84 15.6 99.84 9.36 96.72 9.36 93.6 9.36 90.48 9.36 87.36 9.36 84.24 9.36 81.12 9.36 81.12 6.24 84.24 6.24 87.36 6.24 90.48 6.24 93.6 6.24 96.72 6.24 99.84 6.24 99.84 0 96.72 0 93.6 0"/><polygon points="93.6 18.72 90.48 18.72 87.36 18.72 84.24 18.72 81.12 18.72 78 18.72 74.88 18.72 68.64 18.72 65.52 18.72 62.4 18.72 59.28 18.72 59.28 24.96 62.4 24.96 65.52 24.96 68.64 24.96 74.88 24.96 78 24.96 81.12 24.96 84.24 24.96 87.36 24.96 90.48 24.96 93.6 24.96 96.72 24.96 99.84 24.96 99.84 18.72 96.72 18.72 93.6 18.72"/><polygon points="106.08 9.36 102.96 9.36 102.96 9.36 99.84 9.36 99.84 15.6 102.96 15.6 102.96 18.72 99.84 18.72 99.84 24.96 102.96 24.96 106.08 24.96 106.08 24.93 109.17 21.84 109.2 21.84 109.2 9.36 106.08 9.36 106.08 9.36"/><polygon points="127.92 0 124.8 0 121.68 0 118.56 0 115.44 0 112.32 0 109.2 0 106.08 0 102.96 0 99.84 0 99.84 6.24 102.96 6.24 106.08 6.24 109.2 6.24 112.32 6.24 115.44 6.24 118.56 6.24 121.68 6.24 124.8 6.24 127.92 6.24 131.04 6.24 134.16 6.24 134.16 0 131.04 0 127.92 0"/><polygon points="127.92 9.36 124.8 9.36 121.68 9.36 118.56 9.36 118.56 9.36 115.44 9.36 115.44 9.36 112.32 9.36 112.32 21.84 112.35 21.84 115.44 24.93 115.44 24.96 118.56 24.96 121.68 24.96 124.8 24.96 127.92 24.96 131.04 24.96 134.16 24.96 134.16 18.72 131.04 18.72 127.92 18.72 124.8 18.72 121.68 18.72 118.56 18.72 118.56 15.6 121.68 15.6 124.8 15.6 127.92 15.6 131.04 15.6 134.16 15.6 134.16 9.36 131.04 9.36 127.92 9.36"/><polygon points="140.4 6.24 143.52 6.24 146.64 6.24 146.64 0 143.52 0 140.4 0 137.28 0 134.16 0 134.16 6.24 137.28 6.24 140.4 6.24"/><polygon points="140.4 18.72 137.28 18.72 134.16 18.72 134.16 24.96 137.28 24.96 140.4 24.96 143.52 24.96 146.64 24.96 146.64 18.72 143.52 18.72 140.4 18.72"/><polygon points="165.36 9.36 162.24 9.36 159.12 9.36 156 9.36 156 0 152.88 0 149.76 0 149.76 9.36 146.64 9.36 143.52 9.36 140.4 9.36 137.28 9.36 134.16 9.36 134.16 15.6 137.28 15.6 140.4 15.6 143.52 15.6 146.64 15.6 149.76 15.6 149.76 24.96 152.88 24.96 156 24.96 156 15.6 159.12 15.6 162.24 15.6 165.36 15.6 168.48 15.6 171.6 15.6 171.6 9.36 168.48 9.36 165.36 9.36"/><polygon points="177.84 9.36 177.84 9.36 174.72 9.36 174.72 9.36 177.84 6.24 177.84 0 174.72 0 171.6 0 171.6 15.6 174.72 15.6 177.84 15.6 177.84 24.96 180.96 24.96 184.08 24.96 184.08 9.36 180.96 9.36 177.84 9.36"/><polygon points="190.32 0 187.2 0 187.2 24.96 190.32 24.96 193.44 24.96 193.44 0 190.32 0"/></svg>