<svg id="Layer_1" data-name="Layer 1" xmlns="http://www.w3.org/2000/svg" viewBox="0 0 330 126"><defs><style>.cls-1{fill:#3777bc;}</style></defs><polygon class="cls-1" points="12 120 6 120 6 114 6 108 0 108 0 114 0 120 0 126 6 126 12 126 18 126 18 120 12 120"/><polygon class="cls-1" points="324 108 324 114 324 120 318 120 312 120 312 126 318 126 324 126 330 126 330 120 330 114 330 108 324 108"/><polygon class="cls-1" points="324 0 318 0 312 0 312 6 318 6 324 6 324 12 324 18 330 18 330 12 330 6 330 0 324 0"/><polygon class="cls-1" points="12 0 6 0 0 0 0 6 0 12 0 18 6 18 6 12 6 6 12 6 18 6 18 0 12 0"/><path d="M836.66,560.57v-12h-18v12h-6v6h6v12h30v-18h-12Zm-12-6h6v6h-6Zm18,18h-18v-6h18Z" transform="translate(-794.66 -476.57)"/><polygon points="258 90 258 84 252 84 252 78 252 72 246 72 246 78 246 84 240 84 234 84 234 78 234 72 228 72 228 78 228 84 228 90 228 96 228 102 234 102 234 96 234 90 240 90 246 90 252 90 252 96 252 102 258 102 264 102 264 96 258 96 258 90"/><polygon points="294 72 288 72 282 72 282 78 288 78 294 78 300 78 300 84 300 90 294 90 288 90 282 90 282 84 282 78 276 78 276 84 276 90 276 96 276 102 282 102 282 96 288 96 294 96 300 96 300 102 306 102 306 96 306 90 306 84 306 78 306 72 300 72 294 72"/><polygon points="144 78 144 72 138 72 132 72 126 72 120 72 120 78 126 78 132 78 138 78 138 84 132 84 126 84 126 90 132 90 138 90 144 90 144 96 138 96 132 96 126 96 120 96 120 102 126 102 132 102 138 102 144 102 150 102 150 96 150 90 150 84 144 84 144 78"/><path d="M998.66,554.57v18h-6v-12h-24v-12h-6v30h42v-30h-6Zm-12,18h-18v-6h18Z" transform="translate(-794.66 -476.57)"/><path d="M884.66,548.57h-18v30h30v-30h-12Zm6,12v12h-18v-18h18Z" transform="translate(-794.66 -476.57)"/><path d="M938.66,500.57h-18v12h-6v6h6v12h6v-12h24v-18h-12Zm6,12h-18v-6h18Z" transform="translate(-794.66 -476.57)"/><polygon points="90 24 84 24 78 24 78 30 78 36 72 36 72 42 72 48 72 54 78 54 84 54 90 54 96 54 102 54 102 48 96 48 90 48 84 48 78 48 78 42 84 42 90 42 96 42 96 36 90 36 84 36 84 30 90 30 96 30 102 30 102 24 96 24 90 24"/><polygon points="234 54 240 54 246 54 252 54 252 48 246 48 240 48 234 48 228 48 228 42 234 42 240 42 246 42 246 36 240 36 234 36 234 30 240 30 246 30 252 30 252 24 246 24 240 24 234 24 228 24 228 30 228 36 222 36 222 42 222 48 222 54 228 54 234 54"/><polygon points="294 18 288 18 288 24 294 24 300 24 300 18 294 18"/><polygon points="306 48 306 42 306 36 306 30 306 24 300 24 300 30 300 36 300 42 294 42 294 48 300 48 300 54 306 54 312 54 312 48 306 48"/><polygon points="282 48 282 42 282 36 282 30 282 24 276 24 270 24 270 30 276 30 276 36 276 42 276 48 276 54 282 54 288 54 294 54 294 48 288 48 282 48"/><polygon points="42 24 36 24 30 24 24 24 24 30 24 36 24 42 24 48 24 54 30 54 36 54 42 54 48 54 54 54 54 48 48 48 42 48 36 48 30 48 30 42 30 36 30 30 36 30 42 30 48 30 48 36 54 36 54 30 54 24 48 24 42 24"/><polygon points="180 48 180 42 180 36 180 30 186 30 192 30 198 30 198 36 204 36 204 30 204 24 198 24 192 24 186 24 180 24 174 24 174 30 174 36 174 42 174 48 174 54 180 54 180 48"/></svg>